<?xml version="1.0" encoding="UTF-8"?>
<!DOCTYPE svg PUBLIC "-//W3C//DTD SVG 1.1//EN" "http://www.w3.org/Graphics/SVG/1.1/DTD/svg11.dtd">
<svg xmlns="http://www.w3.org/2000/svg" version="1.1" width="381px" height="397px" style="shape-rendering:geometricPrecision; text-rendering:geometricPrecision; image-rendering:optimizeQuality; fill-rule:evenodd; clip-rule:evenodd" xmlns:xlink="http://www.w3.org/1999/xlink">
<g><path style="opacity:1" fill="#fefefe" d="M -0.5,-0.5 C 126.5,-0.5 253.5,-0.5 380.5,-0.5C 380.5,131.833 380.5,264.167 380.5,396.5C 253.5,396.5 126.5,396.5 -0.5,396.5C -0.5,264.167 -0.5,131.833 -0.5,-0.5 Z"/></g>
<g><path style="opacity:1" fill="#0ccbaa" d="M 175.5,56.5 C 227.418,53.3595 263.918,75.3595 285,122.5C 290.234,138.431 291.9,154.764 290,171.5C 289.976,175.882 288.809,179.882 286.5,183.5C 257.711,173.593 235.545,181.593 220,207.5C 215.178,218.787 214.178,230.453 217,242.5C 217.959,246.414 219.459,250.081 221.5,253.5C 216.049,255.78 210.382,257.28 204.5,258C 194.167,258.667 183.833,258.667 173.5,258C 168.01,257.294 162.677,255.961 157.5,254C 170.057,225.345 163.39,202.345 137.5,185C 122.558,178.302 107.391,177.802 92,183.5C 81.6217,138.437 94.7884,101.937 131.5,74C 145.056,65.0984 159.723,59.265 175.5,56.5 Z"/></g>
<g><path style="opacity:1" fill="#fdfefe" d="M 225.5,77.5 C 241.822,75.9892 249.322,83.3225 248,99.5C 242.159,110.089 233.659,112.923 222.5,108C 212.331,96.6929 213.331,86.5262 225.5,77.5 Z"/></g>
<g><path style="opacity:1" fill="#fdfefe" d="M 198.5,110.5 C 203.121,109.993 207.454,110.826 211.5,113C 220.075,123.485 228.408,134.152 236.5,145C 244.833,145.333 253.167,145.667 261.5,146C 265.277,148.911 266.444,152.744 265,157.5C 263.786,159.049 262.286,160.215 260.5,161C 249.833,161.667 239.167,161.667 228.5,161C 222.987,154.822 217.487,148.655 212,142.5C 201.845,151.987 191.679,161.487 181.5,171C 186.956,174.787 192.123,178.954 197,183.5C 197.667,203.167 197.667,222.833 197,242.5C 191.965,249.044 186.965,249.044 182,242.5C 181.667,225.5 181.333,208.5 181,191.5C 170.5,183.667 160,175.833 149.5,168C 146.592,163.535 146.925,159.368 150.5,155.5C 166.547,140.45 182.547,125.45 198.5,110.5 Z"/></g>
<g><path style="opacity:1" fill="#13ccab" d="M 108.5,195.5 C 128.254,195.432 141.087,204.765 147,223.5C 148.006,231.815 146.506,239.648 142.5,247C 122.396,236.725 107.396,221.225 97.5,200.5C 100.83,198 104.497,196.333 108.5,195.5 Z"/></g>
<g><path style="opacity:1" fill="#0fccaa" d="M 261.5,195.5 C 268.713,195.13 275.38,196.796 281.5,200.5C 271.658,220.675 256.992,236.342 237.5,247.5C 227.448,228.035 231.448,212.202 249.5,200C 253.61,198.485 257.61,196.985 261.5,195.5 Z"/></g>
<g><path style="opacity:1" fill="#120a08" d="M 110.5,269.5 C 115.844,269.334 121.177,269.501 126.5,270C 132.787,270.953 134.954,274.453 133,280.5C 131.926,281.618 130.76,282.618 129.5,283.5C 135.124,285.652 136.957,289.652 135,295.5C 133.786,297.049 132.286,298.215 130.5,299C 123.924,300.377 117.257,300.877 110.5,300.5C 113.167,290.167 113.167,279.833 110.5,269.5 Z"/></g>
<g><path style="opacity:1" fill="#120c10" d="M 138.5,269.5 C 142.5,269.5 146.5,269.5 150.5,269.5C 150.539,271.359 149.706,272.692 148,273.5C 147.5,281.493 147.334,289.493 147.5,297.5C 153.167,297.833 156.167,295.166 156.5,289.5C 157.822,289.33 158.989,289.663 160,290.5C 160.333,292.833 160.667,295.167 161,297.5C 165.434,289.705 168.601,281.372 170.5,272.5C 169.167,272.5 167.833,272.5 166.5,272.5C 166.5,271.5 166.5,270.5 166.5,269.5C 170.833,269.5 175.167,269.5 179.5,269.5C 182.46,280.209 185.794,290.376 189.5,300C 185.514,300.499 181.514,300.666 177.5,300.5C 178.64,297.975 179.307,295.308 179.5,292.5C 175.833,292.5 172.167,292.5 168.5,292.5C 168.693,295.308 169.36,297.975 170.5,300.5C 159.873,300.371 149.207,300.038 138.5,299.5C 139.774,295.015 140.441,290.348 140.5,285.5C 140.339,280.037 139.673,274.703 138.5,269.5 Z"/></g>
<g><path style="opacity:1" fill="#130810" d="M 191.5,269.5 C 196.844,269.334 202.177,269.501 207.5,270C 213.787,270.953 215.954,274.453 214,280.5C 212.926,281.618 211.76,282.618 210.5,283.5C 216.124,285.652 217.957,289.652 216,295.5C 214.786,297.049 213.286,298.215 211.5,299C 204.908,300.329 198.241,300.829 191.5,300.5C 194.167,290.167 194.167,279.833 191.5,269.5 Z"/></g>
<g><path style="opacity:1" fill="#10050d" d="M 219.5,269.5 C 223.167,269.5 226.833,269.5 230.5,269.5C 228.616,278.622 227.95,287.955 228.5,297.5C 234.215,297.785 236.882,295.118 236.5,289.5C 237.833,289.5 239.167,289.5 240.5,289.5C 240.336,292.187 240.503,294.854 241,297.5C 242,296.833 243,296.167 244,295.5C 246.897,287.983 249.064,280.317 250.5,272.5C 249.5,272.5 248.5,272.5 247.5,272.5C 247.5,271.5 247.5,270.5 247.5,269.5C 251.555,269.176 255.555,269.509 259.5,270.5C 262.432,278.796 265.265,287.129 268,295.5C 269.074,296.618 270.24,297.618 271.5,298.5C 271.291,299.086 270.957,299.586 270.5,300C 266.514,300.499 262.514,300.666 258.5,300.5C 259.639,297.996 260.306,295.33 260.5,292.5C 256.833,292.5 253.167,292.5 249.5,292.5C 249.693,295.308 250.36,297.975 251.5,300.5C 240.897,300.368 230.231,300.035 219.5,299.5C 219.808,298.692 220.308,298.025 221,297.5C 221.993,288.019 221.493,278.685 219.5,269.5 Z"/></g>
<g><path style="opacity:1" fill="#e9e6e5" d="M 119.5,272.5 C 126.547,271.701 128.881,274.535 126.5,281C 124.323,282.202 121.989,282.702 119.5,282.5C 119.5,279.167 119.5,275.833 119.5,272.5 Z"/></g>
<g><path style="opacity:1" fill="#efece4" d="M 200.5,272.5 C 204.841,271.663 207.508,273.33 208.5,277.5C 207.399,281.591 204.733,283.258 200.5,282.5C 200.5,279.167 200.5,275.833 200.5,272.5 Z"/></g>
<g><path style="opacity:1" fill="#5282c3" d="M 173.5,275.5 C 173.59,278.152 172.924,280.485 171.5,282.5C 171.41,279.848 172.076,277.515 173.5,275.5 Z"/></g>
<g><path style="opacity:1" fill="#ecebe7" d="M 173.5,275.5 C 174.338,275.842 174.672,276.508 174.5,277.5C 174.41,280.152 175.076,282.485 176.5,284.5C 177.339,285.641 178.006,286.974 178.5,288.5C 175.914,289.48 173.247,289.813 170.5,289.5C 170.198,286.941 170.532,284.607 171.5,282.5C 172.924,280.485 173.59,278.152 173.5,275.5 Z"/></g>
<g><path style="opacity:1" fill="#efece8" d="M 256.5,281.5 C 256.41,284.152 257.076,286.485 258.5,288.5C 256.052,289.473 253.385,289.806 250.5,289.5C 250.232,287.901 250.566,286.568 251.5,285.5C 252.924,283.485 253.59,281.152 253.5,278.5C 253.517,276.972 254.184,276.472 255.5,277C 256.38,278.356 256.714,279.856 256.5,281.5 Z"/></g>
<g><path style="opacity:1" fill="#d99d5a" d="M 174.5,277.5 C 175.924,279.515 176.59,281.848 176.5,284.5C 175.076,282.485 174.41,280.152 174.5,277.5 Z"/></g>
<g><path style="opacity:1" fill="#5383c6" d="M 253.5,278.5 C 253.59,281.152 252.924,283.485 251.5,285.5C 251.41,282.848 252.076,280.515 253.5,278.5 Z"/></g>
<g><path style="opacity:1" fill="#d69957" d="M 256.5,281.5 C 257.924,283.515 258.59,285.848 258.5,288.5C 257.076,286.485 256.41,284.152 256.5,281.5 Z"/></g>
<g><path style="opacity:1" fill="#eae7e5" d="M 119.5,285.5 C 128.823,285.741 130.823,289.574 125.5,297C 123.527,297.495 121.527,297.662 119.5,297.5C 119.5,293.5 119.5,289.5 119.5,285.5 Z"/></g>
<g><path style="opacity:1" fill="#f2f3f0" d="M 200.5,285.5 C 208.263,285.228 210.596,288.728 207.5,296C 205.323,297.202 202.989,297.702 200.5,297.5C 200.5,293.5 200.5,289.5 200.5,285.5 Z"/></g>
<g><path style="opacity:1" fill="#1a0e12" d="M 155.5,320.5 C 155.723,324.162 156.723,327.495 158.5,330.5C 159.29,331.609 159.79,332.942 160,334.5C 161.806,329.582 163.306,324.582 164.5,319.5C 165.5,319.5 166.5,319.5 167.5,319.5C 166.167,323.833 164.833,328.167 163.5,332.5C 163.167,334.5 162.833,336.5 162.5,338.5C 160.833,338.5 159.167,338.5 157.5,338.5C 156.035,332.106 154.368,325.772 152.5,319.5C 153.791,319.263 154.791,319.596 155.5,320.5 Z"/></g>
<g><path style="opacity:1" fill="#1f1315" d="M 173.5,319.5 C 177.167,319.5 180.833,319.5 184.5,319.5C 184.5,320.5 184.5,321.5 184.5,322.5C 182.167,322.5 179.833,322.5 177.5,322.5C 177.5,323.833 177.5,325.167 177.5,326.5C 179.5,326.5 181.5,326.5 183.5,326.5C 183.5,327.5 183.5,328.5 183.5,329.5C 181.5,329.5 179.5,329.5 177.5,329.5C 177.5,331.5 177.5,333.5 177.5,335.5C 179.833,335.5 182.167,335.5 184.5,335.5C 184.5,336.5 184.5,337.5 184.5,338.5C 180.833,338.5 177.167,338.5 173.5,338.5C 173.5,332.167 173.5,325.833 173.5,319.5 Z"/></g>
<g><path style="opacity:1" fill="#1e131a" d="M 191.5,319.5 C 192.833,319.5 194.167,319.5 195.5,319.5C 195.5,324.833 195.5,330.167 195.5,335.5C 197.833,335.5 200.167,335.5 202.5,335.5C 202.5,336.5 202.5,337.5 202.5,338.5C 198.833,338.5 195.167,338.5 191.5,338.5C 191.5,332.167 191.5,325.833 191.5,319.5 Z"/></g>
<g><path style="opacity:1" fill="#1b1016" d="M 213.5,319.5 C 223.734,318.901 227.567,323.568 225,333.5C 222.337,337.725 218.504,339.225 213.5,338C 208.997,334.155 207.497,329.322 209,323.5C 210.667,322.267 212.167,320.933 213.5,319.5 Z"/></g>
<g><path style="opacity:1" fill="#7da4d7" d="M 167.5,319.5 C 168.598,320.601 168.765,321.934 168,323.5C 166.953,326.859 165.453,329.859 163.5,332.5C 164.833,328.167 166.167,323.833 167.5,319.5 Z"/></g>
<g><path style="opacity:1" fill="#264682" d="M 155.5,320.5 C 157.277,323.505 158.277,326.838 158.5,330.5C 156.723,327.495 155.723,324.162 155.5,320.5 Z"/></g>
<g><path style="opacity:1" fill="#ede8e2" d="M 214.5,322.5 C 219.741,321.61 222.408,323.777 222.5,329C 221.998,334.074 219.331,336.074 214.5,335C 211.86,330.768 211.86,326.601 214.5,322.5 Z"/></g>
</svg>
