<?xml version="1.0" encoding="UTF-8"?>
<!DOCTYPE svg PUBLIC "-//W3C//DTD SVG 1.1//EN" "http://www.w3.org/Graphics/SVG/1.1/DTD/svg11.dtd">
<svg xmlns="http://www.w3.org/2000/svg" version="1.1" width="353px" height="383px" style="shape-rendering:geometricPrecision; text-rendering:geometricPrecision; image-rendering:optimizeQuality; fill-rule:evenodd; clip-rule:evenodd" xmlns:xlink="http://www.w3.org/1999/xlink">
<g><path style="opacity:1" fill="#fefefe" d="M -0.5,-0.5 C 117.167,-0.5 234.833,-0.5 352.5,-0.5C 352.5,127.167 352.5,254.833 352.5,382.5C 234.833,382.5 117.167,382.5 -0.5,382.5C -0.5,254.833 -0.5,127.167 -0.5,-0.5 Z"/></g>
<g><path style="opacity:1" fill="#7fd958" d="M 204.5,197.5 C 202.994,200.356 202.328,203.523 202.5,207C 202.504,209.361 202.837,211.527 203.5,213.5C 204.188,220.422 206.188,226.922 209.5,233C 193.796,237.222 177.796,238.556 161.5,237C 156.671,236.459 152.004,235.293 147.5,233.5C 147.167,233 146.833,232.5 146.5,232C 157.371,206.289 152.037,184.622 130.5,167C 118.256,159.218 104.923,156.551 90.5,159C 86.8468,159.773 83.3468,160.94 80,162.5C 69.2372,110.199 87.0705,71.0322 133.5,45C 174.022,28.4215 211.356,33.7549 245.5,61C 274.968,89.0744 284.801,122.908 275,162.5C 244.972,152.282 222.306,160.949 207,188.5C 205.57,191.353 204.737,194.353 204.5,197.5 Z"/></g>
<g><path style="opacity:1" fill="#fdfefc" d="M 213.5,56.5 C 225.227,54.0059 233.061,58.3392 237,69.5C 236.523,84.632 228.69,91.132 213.5,89C 204.715,83.9238 201.548,76.4238 204,66.5C 206.696,62.6393 209.863,59.306 213.5,56.5 Z"/></g>
<g><path style="opacity:1" fill="#fdfefd" d="M 186.5,89.5 C 191.449,88.9589 196.116,89.7922 200.5,92C 208.167,102.333 215.833,112.667 223.5,123C 231.833,123.333 240.167,123.667 248.5,124C 255.9,128.921 256.233,134.255 249.5,140C 238.167,140.667 226.833,140.667 215.5,140C 211.212,134.59 207.045,129.09 203,123.5C 202.261,122.426 201.261,121.759 200,121.5C 189.845,130.987 179.679,140.487 169.5,150C 174.98,153.818 180.147,157.984 185,162.5C 185.667,182.167 185.667,201.833 185,221.5C 180,228.167 175,228.167 170,221.5C 169.667,204.5 169.333,187.5 169,170.5C 158.5,162.667 148,154.833 137.5,147C 134.733,142.707 134.9,138.54 138,134.5C 153.914,119.144 170.08,104.144 186.5,89.5 Z"/></g>
<g><path style="opacity:1" fill="#80d959" d="M 93.5,175.5 C 110.81,173.192 123.643,179.525 132,194.5C 137.154,205.636 136.321,216.303 129.5,226.5C 110.008,215.342 95.3417,199.675 85.5,179.5C 87.9909,177.588 90.6575,176.254 93.5,175.5 Z"/></g>
<g><path style="opacity:1" fill="#7fd959" d="M 246.5,175.5 C 251.179,175.334 255.845,175.501 260.5,176C 263.798,176.487 266.798,177.653 269.5,179.5C 259.634,199.866 244.8,215.533 225,226.5C 214.806,201.866 221.973,184.866 246.5,175.5 Z"/></g>
<g><path style="opacity:1" fill="#baeaa5" d="M 204.5,197.5 C 203.725,202.797 203.392,208.13 203.5,213.5C 202.837,211.527 202.504,209.361 202.5,207C 202.328,203.523 202.994,200.356 204.5,197.5 Z"/></g>
<g><path style="opacity:1" fill="#0f0509" d="M 96.5,249.5 C 103.373,248.965 110.04,249.799 116.5,252C 119.822,257.078 118.822,261.078 113.5,264C 120.125,266.836 121.292,271.336 117,277.5C 116.25,278.126 115.416,278.626 114.5,279C 108.593,280.361 102.593,280.861 96.5,280.5C 96.5,270.167 96.5,259.833 96.5,249.5 Z"/></g>
<g><path style="opacity:1" fill="#04000c" d="M 132.5,274.5 C 136.298,275.483 140.298,275.817 144.5,275.5C 144.5,277.167 144.5,278.833 144.5,280.5C 138.5,280.5 132.5,280.5 126.5,280.5C 126.5,270.167 126.5,259.833 126.5,249.5C 128.5,249.5 130.5,249.5 132.5,249.5C 132.5,257.833 132.5,266.167 132.5,274.5 Z"/></g>
<g><path style="opacity:1" fill="#0f0b11" d="M 157.5,249.5 C 160.5,249.5 163.5,249.5 166.5,249.5C 169.843,259.556 173.176,269.556 176.5,279.5C 174.604,280.466 172.604,280.799 170.5,280.5C 170.917,274.631 168.25,271.964 162.5,272.5C 160.5,272.667 158.5,272.833 156.5,273C 155.446,275.382 154.779,277.882 154.5,280.5C 152.143,280.663 149.81,280.497 147.5,280C 151.652,270.031 154.986,259.865 157.5,249.5 Z"/></g>
<g><path style="opacity:1" fill="#150b0e" d="M 181.5,249.5 C 188.391,248.901 195.058,249.735 201.5,252C 203.504,254.841 204.004,258.007 203,261.5C 201.745,262.211 200.579,263.044 199.5,264C 204.689,266.913 205.856,271.08 203,276.5C 201.421,278.041 199.587,279.208 197.5,280C 192.177,280.499 186.844,280.666 181.5,280.5C 181.5,270.167 181.5,259.833 181.5,249.5 Z"/></g>
<g><path style="opacity:1" fill="#110202" d="M 217.5,249.5 C 217.5,258.167 217.5,266.833 217.5,275.5C 221.833,275.5 226.167,275.5 230.5,275.5C 230.5,277.167 230.5,278.833 230.5,280.5C 224.167,280.5 217.833,280.5 211.5,280.5C 211.5,270.167 211.5,259.833 211.5,249.5C 213.5,249.5 215.5,249.5 217.5,249.5 Z"/></g>
<g><path style="opacity:1" fill="#689dcf" d="M 217.5,249.5 C 218.493,257.65 218.826,265.983 218.5,274.5C 222.702,274.183 226.702,274.517 230.5,275.5C 226.167,275.5 221.833,275.5 217.5,275.5C 217.5,266.833 217.5,258.167 217.5,249.5 Z"/></g>
<g><path style="opacity:1" fill="#0d0911" d="M 255.5,280.5 C 255.59,277.848 254.924,275.515 253.5,273.5C 249.702,272.517 245.702,272.183 241.5,272.5C 241.906,278.404 239.239,281.07 233.5,280.5C 236.833,270.167 240.167,259.833 243.5,249.5C 246.167,249.5 248.833,249.5 251.5,249.5C 254.95,259.845 258.616,270.178 262.5,280.5C 260.167,280.5 257.833,280.5 255.5,280.5 Z"/></g>
<g><path style="opacity:1" fill="#e6e3e2" d="M 102.5,254.5 C 104.857,254.337 107.19,254.503 109.5,255C 112.894,256.565 113.228,258.565 110.5,261C 107.854,261.497 105.187,261.664 102.5,261.5C 102.5,259.167 102.5,256.833 102.5,254.5 Z"/></g>
<g><path style="opacity:1" fill="#e3e1e0" d="M 187.5,254.5 C 190.187,254.336 192.854,254.503 195.5,255C 198.033,257.084 198.033,259.084 195.5,261C 192.854,261.497 190.187,261.664 187.5,261.5C 187.5,259.167 187.5,256.833 187.5,254.5 Z"/></g>
<g><path style="opacity:1" fill="#ecf0ee" d="M 163.5,258.5 C 163.756,261.598 164.422,264.598 165.5,267.5C 163.167,267.5 160.833,267.5 158.5,267.5C 159.37,263.02 160.703,258.687 162.5,254.5C 163.429,255.689 163.762,257.022 163.5,258.5 Z"/></g>
<g><path style="opacity:1" fill="#74a5d8" d="M 247.5,254.5 C 247.5,255.833 247.5,257.167 247.5,258.5C 245.928,261.215 244.928,264.215 244.5,267.5C 243.876,267.083 243.543,266.416 243.5,265.5C 244.468,261.587 245.801,257.92 247.5,254.5 Z"/></g>
<g><path style="opacity:1" fill="#e6ba7a" d="M 247.5,254.5 C 249.199,257.92 250.532,261.587 251.5,265.5C 251.457,266.416 251.124,267.083 250.5,267.5C 250.072,264.215 249.072,261.215 247.5,258.5C 247.5,257.167 247.5,255.833 247.5,254.5 Z"/></g>
<g><path style="opacity:1" fill="#fefffe" d="M 247.5,258.5 C 249.072,261.215 250.072,264.215 250.5,267.5C 248.5,267.5 246.5,267.5 244.5,267.5C 244.928,264.215 245.928,261.215 247.5,258.5 Z"/></g>
<g><path style="opacity:1" fill="#e1ad6a" d="M 163.5,258.5 C 164.767,260.78 165.767,263.28 166.5,266C 166.43,266.765 166.097,267.265 165.5,267.5C 164.422,264.598 163.756,261.598 163.5,258.5 Z"/></g>
<g><path style="opacity:1" fill="#6b99c6" d="M 103.5,266.5 C 103.5,269.167 103.5,271.833 103.5,274.5C 105.5,274.5 107.5,274.5 109.5,274.5C 107.393,275.468 105.059,275.802 102.5,275.5C 102.19,272.287 102.523,269.287 103.5,266.5 Z"/></g>
<g><path style="opacity:1" fill="#faf2eb" d="M 103.5,266.5 C 106.807,266.063 109.807,266.73 112.5,268.5C 114.171,271.816 113.171,273.816 109.5,274.5C 107.5,274.5 105.5,274.5 103.5,274.5C 103.5,271.833 103.5,269.167 103.5,266.5 Z"/></g>
<g><path style="opacity:1" fill="#f3f0eb" d="M 188.5,266.5 C 190.857,266.337 193.19,266.503 195.5,267C 197.725,269.025 198.059,271.358 196.5,274C 193.986,275.252 191.32,275.752 188.5,275.5C 188.5,272.5 188.5,269.5 188.5,266.5 Z"/></g>
<g><path style="opacity:1" fill="#777d95" d="M 132.5,274.5 C 136.833,274.5 141.167,274.5 145.5,274.5C 145.795,276.735 145.461,278.735 144.5,280.5C 144.5,278.833 144.5,277.167 144.5,275.5C 140.298,275.817 136.298,275.483 132.5,274.5 Z"/></g>
<g><path style="opacity:1" fill="#e0ac68" d="M 253.5,273.5 C 254.924,275.515 255.59,277.848 255.5,280.5C 254.076,278.485 253.41,276.152 253.5,273.5 Z"/></g>
<g><path style="opacity:1" fill="#18151f" d="M 127.5,301.5 C 129.167,301.5 130.833,301.5 132.5,301.5C 134.022,308.235 135.855,314.901 138,321.5C 140.121,314.961 141.955,308.294 143.5,301.5C 145.167,301.5 146.833,301.5 148.5,301.5C 146.334,309.831 143.667,317.998 140.5,326C 138.559,326.743 136.726,326.576 135,325.5C 133.923,322.101 132.756,318.767 131.5,315.5C 129.964,310.891 128.63,306.224 127.5,301.5 Z"/></g>
<g><path style="opacity:1" fill="#080111" d="M 156.5,301.5 C 161.167,301.5 165.833,301.5 170.5,301.5C 170.5,302.833 170.5,304.167 170.5,305.5C 167.5,305.5 164.5,305.5 161.5,305.5C 161.5,307.5 161.5,309.5 161.5,311.5C 164.167,311.5 166.833,311.5 169.5,311.5C 169.5,312.833 169.5,314.167 169.5,315.5C 166.833,315.5 164.167,315.5 161.5,315.5C 161.5,317.833 161.5,320.167 161.5,322.5C 164.5,322.5 167.5,322.5 170.5,322.5C 170.5,323.833 170.5,325.167 170.5,326.5C 165.833,326.5 161.167,326.5 156.5,326.5C 156.5,318.167 156.5,309.833 156.5,301.5 Z"/></g>
<g><path style="opacity:1" fill="#0d101a" d="M 180.5,301.5 C 182.167,301.5 183.833,301.5 185.5,301.5C 185.5,308.5 185.5,315.5 185.5,322.5C 188.833,322.5 192.167,322.5 195.5,322.5C 195.5,323.833 195.5,325.167 195.5,326.5C 190.5,326.5 185.5,326.5 180.5,326.5C 180.5,318.167 180.5,309.833 180.5,301.5 Z"/></g>
<g><path style="opacity:1" fill="#1d1619" d="M 211.5,301.5 C 223.349,301.203 228.182,306.869 226,318.5C 222.275,326.105 216.442,328.272 208.5,325C 202.882,320.914 201.049,315.414 203,308.5C 204.851,304.843 207.684,302.51 211.5,301.5 Z"/></g>
<g><path style="opacity:1" fill="#deab69" d="M 127.5,301.5 C 128.63,306.224 129.964,310.891 131.5,315.5C 129.352,312.597 127.852,309.264 127,305.5C 126.235,303.934 126.402,302.601 127.5,301.5 Z"/></g>
<g><path style="opacity:1" fill="#f5f5f3" d="M 211.5,305.5 C 214.862,305.07 217.695,306.07 220,308.5C 220.667,312.167 220.667,315.833 220,319.5C 215.752,323.842 212.085,323.508 209,318.5C 207.743,313.617 208.576,309.284 211.5,305.5 Z"/></g>
</svg>
